<svg width="67" height="31" viewBox="0 0 67 31" fill="none" xmlns="http://www.w3.org/2000/svg">
<rect width="67" height="31" rx="10" fill="white"/>
<path d="M14.228 11.576V13.22H10.796V14.996H13.364V16.592H10.796V20H8.744V11.576H14.228ZM19.2905 20.084C18.4985 20.084 17.7705 19.9 17.1065 19.532C16.4505 19.164 15.9265 18.652 15.5345 17.996C15.1505 17.332 14.9585 16.588 14.9585 15.764C14.9585 14.94 15.1505 14.2 15.5345 13.544C15.9265 12.888 16.4505 12.376 17.1065 12.008C17.7705 11.64 18.4985 11.456 19.2905 11.456C20.0825 11.456 20.8065 11.64 21.4625 12.008C22.1265 12.376 22.6465 12.888 23.0225 13.544C23.4065 14.2 23.5985 14.94 23.5985 15.764C23.5985 16.588 23.4065 17.332 23.0225 17.996C22.6385 18.652 22.1185 19.164 21.4625 19.532C20.8065 19.9 20.0825 20.084 19.2905 20.084ZM19.2905 18.212C19.9625 18.212 20.4985 17.988 20.8985 17.54C21.3065 17.092 21.5105 16.5 21.5105 15.764C21.5105 15.02 21.3065 14.428 20.8985 13.988C20.4985 13.54 19.9625 13.316 19.2905 13.316C18.6105 13.316 18.0665 13.536 17.6585 13.976C17.2585 14.416 17.0585 15.012 17.0585 15.764C17.0585 16.508 17.2585 17.104 17.6585 17.552C18.0665 17.992 18.6105 18.212 19.2905 18.212ZM26.7921 18.416H29.4801V20H24.7401V11.576H26.7921V18.416ZM32.5108 18.416H35.1988V20H30.4588V11.576H32.5108V18.416ZM40.1616 20.084C39.3696 20.084 38.6416 19.9 37.9776 19.532C37.3216 19.164 36.7976 18.652 36.4056 17.996C36.0216 17.332 35.8296 16.588 35.8296 15.764C35.8296 14.94 36.0216 14.2 36.4056 13.544C36.7976 12.888 37.3216 12.376 37.9776 12.008C38.6416 11.64 39.3696 11.456 40.1616 11.456C40.9536 11.456 41.6776 11.64 42.3336 12.008C42.9976 12.376 43.5176 12.888 43.8936 13.544C44.2776 14.2 44.4696 14.94 44.4696 15.764C44.4696 16.588 44.2776 17.332 43.8936 17.996C43.5096 18.652 42.9896 19.164 42.3336 19.532C41.6776 19.9 40.9536 20.084 40.1616 20.084ZM40.1616 18.212C40.8336 18.212 41.3696 17.988 41.7696 17.54C42.1776 17.092 42.3816 16.5 42.3816 15.764C42.3816 15.02 42.1776 14.428 41.7696 13.988C41.3696 13.54 40.8336 13.316 40.1616 13.316C39.4816 13.316 38.9376 13.536 38.5296 13.976C38.1296 14.416 37.9296 15.012 37.9296 15.764C37.9296 16.508 38.1296 17.104 38.5296 17.552C38.9376 17.992 39.4816 18.212 40.1616 18.212ZM57.2032 11.576L55.0072 20H52.5232L51.1792 14.456L49.7872 20H47.3032L45.1672 11.576H47.3632L48.5752 17.708L50.0752 11.576H52.3312L53.7712 17.708L54.9952 11.576H57.2032Z" fill="black"/>
</svg>
