<svg width="312" height="32" viewBox="0 0 312 32" fill="none" xmlns="http://www.w3.org/2000/svg">
<rect width="312" height="32" rx="10" fill="white"/>
<path d="M17.504 22L13.728 17.04V22H10.992V10.768H13.728V15.696L17.472 10.768H20.688L16.336 16.272L20.848 22H17.504ZM32.1963 22H29.4603L24.8843 15.072V22H22.1483V10.768H24.8843L29.4603 17.728V10.768H32.1963V22ZM39.4915 22.112C38.4355 22.112 37.4648 21.8667 36.5795 21.376C35.7048 20.8853 35.0062 20.2027 34.4835 19.328C33.9715 18.4427 33.7155 17.4507 33.7155 16.352C33.7155 15.2533 33.9715 14.2667 34.4835 13.392C35.0062 12.5173 35.7048 11.8347 36.5795 11.344C37.4648 10.8533 38.4355 10.608 39.4915 10.608C40.5475 10.608 41.5128 10.8533 42.3875 11.344C43.2728 11.8347 43.9662 12.5173 44.4675 13.392C44.9795 14.2667 45.2355 15.2533 45.2355 16.352C45.2355 17.4507 44.9795 18.4427 44.4675 19.328C43.9555 20.2027 43.2622 20.8853 42.3875 21.376C41.5128 21.8667 40.5475 22.112 39.4915 22.112ZM39.4915 19.616C40.3875 19.616 41.1022 19.3173 41.6355 18.72C42.1795 18.1227 42.4515 17.3333 42.4515 16.352C42.4515 15.36 42.1795 14.5707 41.6355 13.984C41.1022 13.3867 40.3875 13.088 39.4915 13.088C38.5848 13.088 37.8595 13.3813 37.3155 13.968C36.7822 14.5547 36.5155 15.3493 36.5155 16.352C36.5155 17.344 36.7822 18.1387 37.3155 18.736C37.8595 19.3227 38.5848 19.616 39.4915 19.616ZM62.2136 10.768L59.2856 22H55.9736L54.1816 14.608L52.3256 22H49.0136L46.1656 10.768H49.0936L50.7096 18.944L52.7096 10.768H55.7176L57.6376 18.944L59.2696 10.768H62.2136ZM66.3218 19.888H69.9058V22H63.5858V10.768H66.3218V19.888ZM73.9468 12.96V15.232H77.6108V17.344H73.9468V19.808H78.0908V22H71.2108V10.768H78.0908V12.96H73.9468ZM84.075 10.768C85.259 10.768 86.2937 11.0027 87.179 11.472C88.0643 11.9413 88.747 12.6027 89.227 13.456C89.7177 14.2987 89.963 15.2747 89.963 16.384C89.963 17.4827 89.7177 18.4587 89.227 19.312C88.747 20.1653 88.059 20.8267 87.163 21.296C86.2777 21.7653 85.2483 22 84.075 22H79.867V10.768H84.075ZM83.899 19.632C84.9337 19.632 85.739 19.3493 86.315 18.784C86.891 18.2187 87.179 17.4187 87.179 16.384C87.179 15.3493 86.891 14.544 86.315 13.968C85.739 13.392 84.9337 13.104 83.899 13.104H82.603V19.632H83.899ZM98.948 14.32C98.7453 13.9467 98.452 13.664 98.068 13.472C97.6947 13.2693 97.252 13.168 96.74 13.168C95.8547 13.168 95.1453 13.4613 94.612 14.048C94.0787 14.624 93.812 15.3973 93.812 16.368C93.812 17.4027 94.0893 18.2133 94.644 18.8C95.2093 19.376 95.9827 19.664 96.964 19.664C97.636 19.664 98.2013 19.4933 98.66 19.152C99.1293 18.8107 99.4707 18.32 99.684 17.68H96.212V15.664H102.164V18.208C101.961 18.8907 101.615 19.5253 101.124 20.112C100.644 20.6987 100.031 21.1733 99.284 21.536C98.5373 21.8987 97.6947 22.08 96.756 22.08C95.6467 22.08 94.6547 21.84 93.78 21.36C92.916 20.8693 92.2387 20.192 91.748 19.328C91.268 18.464 91.028 17.4773 91.028 16.368C91.028 15.2587 91.268 14.272 91.748 13.408C92.2387 12.5333 92.916 11.856 93.78 11.376C94.644 10.8853 95.6307 10.64 96.74 10.64C98.084 10.64 99.2147 10.9653 100.132 11.616C101.06 12.2667 101.673 13.168 101.972 14.32H98.948ZM106.416 12.96V15.232H110.08V17.344H106.416V19.808H110.56V22H103.68V10.768H110.56V12.96H106.416ZM128.446 10.768V22H125.71V15.264L123.198 22H120.99L118.462 15.248V22H115.726V10.768H118.958L122.11 18.544L125.23 10.768H128.446ZM137.406 20.016H133.214L132.542 22H129.678L133.742 10.768H136.91L140.974 22H138.078L137.406 20.016ZM136.702 17.904L135.31 13.792L133.934 17.904H136.702ZM148.723 22L144.947 17.04V22H142.211V10.768H144.947V15.696L148.691 10.768H151.907L147.555 16.272L152.067 22H148.723ZM156.103 12.96V15.232H159.767V17.344H156.103V19.808H160.247V22H153.367V10.768H160.247V12.96H156.103ZM166.087 22.112C165.266 22.112 164.53 21.9787 163.879 21.712C163.229 21.4453 162.706 21.0507 162.311 20.528C161.927 20.0053 161.725 19.376 161.703 18.64H164.615C164.658 19.056 164.802 19.376 165.047 19.6C165.293 19.8133 165.613 19.92 166.007 19.92C166.413 19.92 166.733 19.8293 166.967 19.648C167.202 19.456 167.319 19.1947 167.319 18.864C167.319 18.5867 167.223 18.3573 167.031 18.176C166.85 17.9947 166.621 17.8453 166.343 17.728C166.077 17.6107 165.693 17.4773 165.191 17.328C164.466 17.104 163.874 16.88 163.415 16.656C162.957 16.432 162.562 16.1013 162.231 15.664C161.901 15.2267 161.735 14.656 161.735 13.952C161.735 12.9067 162.114 12.0907 162.871 11.504C163.629 10.9067 164.615 10.608 165.831 10.608C167.069 10.608 168.066 10.9067 168.823 11.504C169.581 12.0907 169.986 12.912 170.039 13.968H167.079C167.058 13.6053 166.925 13.3227 166.679 13.12C166.434 12.9067 166.119 12.8 165.735 12.8C165.405 12.8 165.138 12.8907 164.935 13.072C164.733 13.2427 164.631 13.4933 164.631 13.824C164.631 14.1867 164.802 14.4693 165.143 14.672C165.485 14.8747 166.018 15.0933 166.743 15.328C167.469 15.5733 168.055 15.808 168.503 16.032C168.962 16.256 169.357 16.5813 169.687 17.008C170.018 17.4347 170.183 17.984 170.183 18.656C170.183 19.296 170.018 19.8773 169.687 20.4C169.367 20.9227 168.898 21.3387 168.279 21.648C167.661 21.9573 166.93 22.112 166.087 22.112ZM183.338 10.768V12.96H180.362V22H177.626V12.96H174.65V10.768H183.338ZM194.439 10.768V22H191.703V17.376H187.447V22H184.711V10.768H187.447V15.168H191.703V10.768H194.439ZM199.15 12.96V15.232H202.814V17.344H199.15V19.808H203.294V22H196.414V10.768H203.294V12.96H199.15ZM212.669 10.768C213.853 10.768 214.887 11.0027 215.773 11.472C216.658 11.9413 217.341 12.6027 217.821 13.456C218.311 14.2987 218.557 15.2747 218.557 16.384C218.557 17.4827 218.311 18.4587 217.821 19.312C217.341 20.1653 216.653 20.8267 215.757 21.296C214.871 21.7653 213.842 22 212.669 22H208.461V10.768H212.669ZM212.493 19.632C213.527 19.632 214.333 19.3493 214.909 18.784C215.485 18.2187 215.773 17.4187 215.773 16.384C215.773 15.3493 215.485 14.544 214.909 13.968C214.333 13.392 213.527 13.104 212.493 13.104H211.197V19.632H212.493ZM222.822 10.768V22H220.086V10.768H222.822ZM232.117 10.768V12.96H227.541V15.328H230.965V17.456H227.541V22H224.805V10.768H232.117ZM240.867 10.768V12.96H236.291V15.328H239.715V17.456H236.291V22H233.555V10.768H240.867ZM245.041 12.96V15.232H248.705V17.344H245.041V19.808H249.185V22H242.305V10.768H249.185V12.96H245.041ZM256.689 22L254.353 17.76H253.697V22H250.961V10.768H255.553C256.438 10.768 257.19 10.9227 257.809 11.232C258.438 11.5413 258.907 11.968 259.217 12.512C259.526 13.0453 259.681 13.6427 259.681 14.304C259.681 15.0507 259.467 15.7173 259.041 16.304C258.625 16.8907 258.006 17.3067 257.185 17.552L259.777 22H256.689ZM253.697 15.824H255.393C255.894 15.824 256.267 15.7013 256.513 15.456C256.769 15.2107 256.897 14.864 256.897 14.416C256.897 13.9893 256.769 13.6533 256.513 13.408C256.267 13.1627 255.894 13.04 255.393 13.04H253.697V15.824ZM264.134 12.96V15.232H267.798V17.344H264.134V19.808H268.278V22H261.398V10.768H268.278V12.96H264.134ZM280.103 22H277.367L272.791 15.072V22H270.055V10.768H272.791L277.367 17.728V10.768H280.103V22ZM281.622 16.368C281.622 15.2587 281.862 14.272 282.342 13.408C282.822 12.5333 283.488 11.856 284.342 11.376C285.206 10.8853 286.182 10.64 287.27 10.64C288.603 10.64 289.744 10.992 290.694 11.696C291.643 12.4 292.278 13.36 292.598 14.576H289.59C289.366 14.1067 289.046 13.7493 288.63 13.504C288.224 13.2587 287.76 13.136 287.238 13.136C286.395 13.136 285.712 13.4293 285.19 14.016C284.667 14.6027 284.406 15.3867 284.406 16.368C284.406 17.3493 284.667 18.1333 285.19 18.72C285.712 19.3067 286.395 19.6 287.238 19.6C287.76 19.6 288.224 19.4773 288.63 19.232C289.046 18.9867 289.366 18.6293 289.59 18.16H292.598C292.278 19.376 291.643 20.336 290.694 21.04C289.744 21.7333 288.603 22.08 287.27 22.08C286.182 22.08 285.206 21.84 284.342 21.36C283.488 20.8693 282.822 20.192 282.342 19.328C281.862 18.464 281.622 17.4773 281.622 16.368ZM297.009 12.96V15.232H300.673V17.344H297.009V19.808H301.153V22H294.273V10.768H301.153V12.96H297.009Z" fill="black"/>
</svg>
